# xmcd
#
# Track frame offsets: 
#        150
#        23275
#        39478
#        57557
#        71174
#        84365
#        97261
#        110674
#        123489
#        140615
#        159383
#        173072
#        185221
#        197459
#        212894
#        229760
#
# Disc length: 3217 seconds
#
# Revision: 0
# Processed by: cddbd v1.5.2PL0 Copyright (c) Steve Scherf et al.
# Submitted via: ExactAudioCopy v0.99pb4
#
DISCID=e50c8f10
DTITLE=Various Artist - The best of Country Music CD2
DYEAR=1995
DGENRE=Country
TTITLE0=G. Gabriel and Boxcar Willie - Ehrbares Mädchen
TTITLE1=Wild Canyon - Come on Home and sing the Blues to Daddy
TTITLE2=Don Williams - I believe in you
TTITLE3=Pirates of the Mississippi -  Speak on the Devil
TTITLE4=Truck Stop - Arizona Arizona
TTITLE5=The Jackys - Tchettchett-Boogie
TTITLE6=Dave Dudley - Deep in the Heart of Texas
TTITLE7=Mike Herman and Booze Company - Verliebt in Country
TTITLE8=The Bellamy Brothers - I Love you
TTITLE9=Kris Kristofferson - Me and Bobby Mc Gee
TTITLE10=Dagmar-The Lady of Country - Du hast doch ein Rad ab
TTITLE11=The Moody Brothers - Dreaming
TTITLE12=Willie Nelson - On the Road again
TTITLE13=Alabama - On this Side of the Moon
TTITLE14=Bobby Bare - Sylvia`s Mother
TTITLE15=Johnny Cash - Ring of Fire
EXTD=
EXTT0=
EXTT1=
EXTT2=
EXTT3=
EXTT4=
EXTT5=
EXTT6=
EXTT7=
EXTT8=
EXTT9=
EXTT10=
EXTT11=
EXTT12=
EXTT13=
EXTT14=
EXTT15=
PLAYORDER=
